<svg width="389" height="181" viewBox="0 0 389 181" fill="none" xmlns="http://www.w3.org/2000/svg">
<rect width="389" height="180.119" fill="#4F46E5"/>
<path d="M80.0084 70.5509C86.4084 70.5509 91.5924 72.5029 95.5604 76.4069C99.5284 80.2469 101.512 85.8149 101.512 93.1109V124.119H92.8724V94.3589C92.8724 89.1109 91.5604 85.1109 88.9364 82.3589C86.3124 79.5429 82.7284 78.1349 78.1844 78.1349C73.5764 78.1349 69.8964 79.5749 67.1444 82.4549C64.4564 85.3349 63.1124 89.5269 63.1124 95.0309V124.119H54.3764V71.5109H63.1124V78.9989C64.8404 76.3109 67.1764 74.2309 70.1204 72.7589C73.1284 71.2869 76.4244 70.5509 80.0084 70.5509ZM138.727 124.983C133.799 124.983 129.319 123.863 125.287 121.623C121.319 119.383 118.183 116.215 115.879 112.119C113.639 107.959 112.519 103.159 112.519 97.7189C112.519 92.3429 113.671 87.6069 115.975 83.5109C118.343 79.3509 121.543 76.1829 125.575 74.0069C129.607 71.7669 134.119 70.6469 139.111 70.6469C144.103 70.6469 148.615 71.7669 152.647 74.0069C156.679 76.1829 159.847 79.3189 162.151 83.4149C164.519 87.5109 165.703 92.2789 165.703 97.7189C165.703 103.159 164.487 107.959 162.055 112.119C159.687 116.215 156.455 119.383 152.359 121.623C148.263 123.863 143.719 124.983 138.727 124.983ZM138.727 117.303C141.863 117.303 144.807 116.567 147.559 115.095C150.311 113.623 152.519 111.415 154.183 108.471C155.911 105.527 156.775 101.943 156.775 97.7189C156.775 93.4949 155.943 89.9109 154.279 86.9669C152.615 84.0229 150.439 81.8469 147.751 80.4389C145.063 78.9669 142.151 78.2309 139.015 78.2309C135.815 78.2309 132.871 78.9669 130.183 80.4389C127.559 81.8469 125.447 84.0229 123.847 86.9669C122.247 89.9109 121.447 93.4949 121.447 97.7189C121.447 102.007 122.215 105.623 123.751 108.567C125.351 111.511 127.463 113.719 130.087 115.191C132.711 116.599 135.591 117.303 138.727 117.303ZM187.845 78.7109V109.719C187.845 112.279 188.389 114.103 189.477 115.191C190.565 116.215 192.453 116.727 195.141 116.727H201.573V124.119H193.701C188.837 124.119 185.189 122.999 182.757 120.759C180.325 118.519 179.109 114.839 179.109 109.719V78.7109H172.293V71.5109H179.109V58.2629H187.845V71.5109H201.573V78.7109H187.845ZM260.158 95.7989C260.158 97.4629 260.062 99.2229 259.87 101.079H217.822C218.142 106.263 219.902 110.327 223.102 113.271C226.366 116.151 230.302 117.591 234.91 117.591C238.686 117.591 241.822 116.727 244.318 114.999C246.878 113.207 248.67 110.839 249.694 107.895H259.102C257.694 112.951 254.878 117.079 250.654 120.279C246.43 123.415 241.182 124.983 234.91 124.983C229.918 124.983 225.438 123.863 221.47 121.623C217.566 119.383 214.494 116.215 212.254 112.119C210.014 107.959 208.894 103.159 208.894 97.7189C208.894 92.2789 209.982 87.5109 212.158 83.4149C214.334 79.3189 217.374 76.1829 221.278 74.0069C225.246 71.7669 229.79 70.6469 234.91 70.6469C239.902 70.6469 244.318 71.7349 248.158 73.9109C251.998 76.0869 254.942 79.0949 256.99 82.9349C259.102 86.7109 260.158 90.9989 260.158 95.7989ZM251.134 93.9749C251.134 90.6469 250.398 87.7989 248.926 85.4309C247.454 82.9989 245.438 81.1749 242.878 79.9589C240.382 78.6789 237.598 78.0389 234.526 78.0389C230.11 78.0389 226.334 79.4469 223.198 82.2629C220.126 85.0789 218.366 88.9829 217.918 93.9749H251.134ZM280.425 53.0789V124.119H271.689V53.0789H280.425ZM340.626 71.5109L308.946 148.887H299.922L310.29 123.543L289.074 71.5109H298.77L315.282 114.135L331.602 71.5109H340.626Z" fill="white"/>
<rect x="299" y="138" width="16" height="11" fill="#4F46E5"/>
<path d="M314 137C313 140.992 310.801 142.492 308.088 142.492C305.375 142.492 303.176 140.701 303.176 138.492C303.176 136.283 305.375 134.492 308.088 134.492C310.801 134.492 315 133.008 314 137Z" fill="white"/>
<line x1="313.53" y1="136.829" x2="317.53" y2="125.829" stroke="white"/>
<path d="M48 134H308V142.5H48V134Z" fill="white"/>
</svg>
