<svg width="389" height="181" viewBox="0 0 389 181" fill="none" xmlns="http://www.w3.org/2000/svg">
<path d="M76.0553 65.432C82.4553 65.432 87.6393 67.384 91.6073 71.288C95.5753 75.128 97.5593 80.696 97.5593 87.992V119H88.9193V89.24C88.9193 83.992 87.6073 79.992 84.9833 77.24C82.3593 74.424 78.7753 73.016 74.2313 73.016C69.6233 73.016 65.9433 74.456 63.1913 77.336C60.5033 80.216 59.1593 84.408 59.1593 89.912V119H50.4233V66.392H59.1593V73.88C60.8873 71.192 63.2233 69.112 66.1673 67.64C69.1753 66.168 72.4713 65.432 76.0553 65.432ZM136.774 119.864C131.846 119.864 127.366 118.744 123.334 116.504C119.366 114.264 116.23 111.096 113.926 107C111.686 102.84 110.566 98.04 110.566 92.6C110.566 87.224 111.718 82.488 114.022 78.392C116.39 74.232 119.59 71.064 123.622 68.888C127.654 66.648 132.166 65.528 137.158 65.528C142.15 65.528 146.662 66.648 150.694 68.888C154.726 71.064 157.894 74.2 160.198 78.296C162.566 82.392 163.75 87.16 163.75 92.6C163.75 98.04 162.534 102.84 160.102 107C157.734 111.096 154.502 114.264 150.406 116.504C146.31 118.744 141.766 119.864 136.774 119.864ZM136.774 112.184C139.91 112.184 142.854 111.448 145.606 109.976C148.358 108.504 150.566 106.296 152.23 103.352C153.958 100.408 154.822 96.824 154.822 92.6C154.822 88.376 153.99 84.792 152.326 81.848C150.662 78.904 148.486 76.728 145.798 75.32C143.11 73.848 140.198 73.112 137.062 73.112C133.862 73.112 130.918 73.848 128.23 75.32C125.606 76.728 123.494 78.904 121.894 81.848C120.294 84.792 119.494 88.376 119.494 92.6C119.494 96.888 120.262 100.504 121.798 103.448C123.398 106.392 125.51 108.6 128.134 110.072C130.758 111.48 133.638 112.184 136.774 112.184ZM187.892 73.592V104.6C187.892 107.16 188.436 108.984 189.524 110.072C190.612 111.096 192.5 111.608 195.188 111.608H201.62V119H193.748C188.884 119 185.236 117.88 182.804 115.64C180.372 113.4 179.156 109.72 179.156 104.6V73.592H172.34V66.392H179.156V53.144H187.892V66.392H201.62V73.592H187.892ZM262.205 90.68C262.205 92.344 262.109 94.104 261.917 95.96H219.869C220.189 101.144 221.949 105.208 225.149 108.152C228.413 111.032 232.349 112.472 236.957 112.472C240.733 112.472 243.869 111.608 246.365 109.88C248.925 108.088 250.717 105.72 251.741 102.776H261.149C259.741 107.832 256.925 111.96 252.701 115.16C248.477 118.296 243.229 119.864 236.957 119.864C231.965 119.864 227.485 118.744 223.517 116.504C219.613 114.264 216.541 111.096 214.301 107C212.061 102.84 210.941 98.04 210.941 92.6C210.941 87.16 212.029 82.392 214.205 78.296C216.381 74.2 219.421 71.064 223.325 68.888C227.293 66.648 231.837 65.528 236.957 65.528C241.949 65.528 246.365 66.616 250.205 68.792C254.045 70.968 256.989 73.976 259.037 77.816C261.149 81.592 262.205 85.88 262.205 90.68ZM253.181 88.856C253.181 85.528 252.445 82.68 250.973 80.312C249.501 77.88 247.485 76.056 244.925 74.84C242.429 73.56 239.645 72.92 236.573 72.92C232.157 72.92 228.381 74.328 225.245 77.144C222.173 79.96 220.413 83.864 219.965 88.856H253.181ZM284.472 47.96V119H275.736V47.96H284.472Z" fill="white"/>
<path d="M49.9272 130H320C319.585 131.007 319.377 131.511 319.131 131.946C317.885 134.143 315.674 135.623 313.168 135.938C312.672 136 312.127 136 311.038 136H49.9272V130Z" fill="white"/>
<path d="M294.5 66.5H304.5L313 88.5L321.5 110L316 119L294.5 66.5Z" fill="white"/>
<path d="M337 66.5H346L320 130L310.5 131L337 66.5Z" fill="white"/>
</svg>
